<svg xmlns="http://www.w3.org/2000/svg" width="960" height="640" viewBox="0 0 480 320" role="img" aria-labelledby="title desc">
  <title id="title">Moodboard narrativo</title>
  <desc id="desc">Reino del ajedrez, piezas vivas y tarjetas RA</desc>
  <defs>
    <linearGradient id="g" x1="0" y1="0" x2="1" y2="1">
      <stop offset="0" stop-color="#101722"/>
      <stop offset="1" stop-color="#182336"/>
    </linearGradient>
    <filter id="shadow" x="-20%" y="-20%" width="140%" height="140%">
      <feDropShadow dx="0" dy="14" stdDeviation="14" flood-color="#0f172a" flood-opacity=".18"/>
    </filter>
  </defs>
  <rect width="480" height="320" rx="32" fill="url(#g)"/>
  <circle cx="420" cy="58" r="86" fill="#bd8a33" opacity=".15"/>
  <circle cx="52" cy="285" r="82" fill="#244c7c" opacity=".16"/>
  <g filter="url(#shadow)">
    
      <rect x="282" y="124" width="110" height="138" rx="18" fill="#ffffff" opacity=".12" stroke="#bd8a33"/>
      <rect x="306" y="150" width="62" height="62" rx="10" fill="none" stroke="#bd8a33" stroke-width="5"/>
      <rect x="322" y="166" width="30" height="30" fill="#bd8a33" opacity=".85"/>
      <path d="M300 232h74" stroke="#ffffff" opacity=".38" stroke-width="7" stroke-linecap="round"/>
      <path d="M312 249h50" stroke="#ffffff" opacity=".28" stroke-width="7" stroke-linecap="round"/>
    <rect x="58" y="126" width="28" height="28" fill="#bd8a33" opacity=".96"/><rect x="86" y="126" width="28" height="28" fill="#24344c" opacity=".96"/><rect x="114" y="126" width="28" height="28" fill="#bd8a33" opacity=".96"/><rect x="142" y="126" width="28" height="28" fill="#24344c" opacity=".96"/><rect x="170" y="126" width="28" height="28" fill="#bd8a33" opacity=".96"/><rect x="198" y="126" width="28" height="28" fill="#24344c" opacity=".96"/><rect x="58" y="154" width="28" height="28" fill="#24344c" opacity=".96"/><rect x="86" y="154" width="28" height="28" fill="#bd8a33" opacity=".96"/><rect x="114" y="154" width="28" height="28" fill="#24344c" opacity=".96"/><rect x="142" y="154" width="28" height="28" fill="#bd8a33" opacity=".96"/><rect x="170" y="154" width="28" height="28" fill="#24344c" opacity=".96"/><rect x="198" y="154" width="28" height="28" fill="#bd8a33" opacity=".96"/><rect x="58" y="182" width="28" height="28" fill="#bd8a33" opacity=".96"/><rect x="86" y="182" width="28" height="28" fill="#24344c" opacity=".96"/><rect x="114" y="182" width="28" height="28" fill="#bd8a33" opacity=".96"/><rect x="142" y="182" width="28" height="28" fill="#24344c" opacity=".96"/><rect x="170" y="182" width="28" height="28" fill="#bd8a33" opacity=".96"/><rect x="198" y="182" width="28" height="28" fill="#24344c" opacity=".96"/><rect x="58" y="210" width="28" height="28" fill="#24344c" opacity=".96"/><rect x="86" y="210" width="28" height="28" fill="#bd8a33" opacity=".96"/><rect x="114" y="210" width="28" height="28" fill="#24344c" opacity=".96"/><rect x="142" y="210" width="28" height="28" fill="#bd8a33" opacity=".96"/><rect x="170" y="210" width="28" height="28" fill="#24344c" opacity=".96"/><rect x="198" y="210" width="28" height="28" fill="#bd8a33" opacity=".96"/><rect x="58" y="238" width="28" height="28" fill="#bd8a33" opacity=".96"/><rect x="86" y="238" width="28" height="28" fill="#24344c" opacity=".96"/><rect x="114" y="238" width="28" height="28" fill="#bd8a33" opacity=".96"/><rect x="142" y="238" width="28" height="28" fill="#24344c" opacity=".96"/><rect x="170" y="238" width="28" height="28" fill="#bd8a33" opacity=".96"/><rect x="198" y="238" width="28" height="28" fill="#24344c" opacity=".96"/><rect x="58" y="266" width="28" height="28" fill="#24344c" opacity=".96"/><rect x="86" y="266" width="28" height="28" fill="#bd8a33" opacity=".96"/><rect x="114" y="266" width="28" height="28" fill="#24344c" opacity=".96"/><rect x="142" y="266" width="28" height="28" fill="#bd8a33" opacity=".96"/><rect x="170" y="266" width="28" height="28" fill="#24344c" opacity=".96"/><rect x="198" y="266" width="28" height="28" fill="#bd8a33" opacity=".96"/>
  </g>
  <text x="42" y="54" fill="#ffffff" font-family="Inter, Arial, sans-serif" font-size="24" font-weight="800">Moodboard narrativo</text>
  <text x="42" y="82" fill="#d6c7a3" font-family="Inter, Arial, sans-serif" font-size="13">Reino del ajedrez, piezas vivas y tarjetas RA</text>
</svg>